<?xml version="1.0" encoding="UTF-8" standalone="no"?>
<!-- Generator: Adobe Illustrator 19.0.0, SVG Export Plug-In . SVG Version: 6.00 Build 0)  -->

<svg
   xmlns:dc="http://purl.org/dc/elements/1.1/"
   xmlns:cc="http://creativecommons.org/ns#"
   xmlns:rdf="http://www.w3.org/1999/02/22-rdf-syntax-ns#"
   xmlns:svg="http://www.w3.org/2000/svg"
   xmlns="http://www.w3.org/2000/svg"
   xmlns:sodipodi="http://sodipodi.sourceforge.net/DTD/sodipodi-0.dtd"
   xmlns:inkscape="http://www.inkscape.org/namespaces/inkscape"
   version="1.1"
   id="Layer_1"
   x="0px"
   y="0px"
   viewBox="0 0 723.09534 547.33484"
   xml:space="preserve"
   sodipodi:docname="Poly parrot.svg"
   width="723.09534"
   height="547.33484"
   inkscape:version="0.92.4 (5da689c313, 2019-01-14)"><metadata
   id="metadata882"><rdf:RDF><cc:Work
       rdf:about=""><dc:format>image/svg+xml</dc:format><dc:type
         rdf:resource="http://purl.org/dc/dcmitype/StillImage" /><dc:title></dc:title></cc:Work></rdf:RDF></metadata><defs
   id="defs880"><inkscape:perspective
     id="perspective10"
     inkscape:persp3d-origin="512 : 341.33333 : 1"
     inkscape:vp_z="1024 : 512 : 1"
     inkscape:vp_y="0 : 1000 : 0"
     inkscape:vp_x="0 : 512 : 1"
     sodipodi:type="inkscape:persp3d" /></defs><sodipodi:namedview
   pagecolor="#ffffff"
   bordercolor="#666666"
   borderopacity="1"
   objecttolerance="10"
   gridtolerance="10"
   guidetolerance="10"
   inkscape:pageopacity="0"
   inkscape:pageshadow="2"
   inkscape:window-width="1920"
   inkscape:window-height="1001"
   id="namedview878"
   showgrid="false"
   fit-margin-top="-3.2"
   fit-margin-left="0"
   fit-margin-right="-2"
   fit-margin-bottom="0"
   inkscape:zoom="0.55795144"
   inkscape:cx="647.74515"
   inkscape:cy="145.05329"
   inkscape:window-x="-9"
   inkscape:window-y="-9"
   inkscape:window-maximized="1"
   inkscape:current-layer="Layer_1" />
















<g
   id="g847"
   transform="translate(211.0957,71.856854)">
</g>
<g
   id="g849"
   transform="translate(211.0957,71.856854)">
</g>
<g
   id="g851"
   transform="translate(211.0957,71.856854)">
</g>
<g
   id="g853"
   transform="translate(211.0957,71.856854)">
</g>
<g
   id="g855"
   transform="translate(211.0957,71.856854)">
</g>
<g
   id="g857"
   transform="translate(211.0957,71.856854)">
</g>
<g
   id="g859"
   transform="translate(211.0957,71.856854)">
</g>
<g
   id="g861"
   transform="translate(211.0957,71.856854)">
</g>
<g
   id="g863"
   transform="translate(211.0957,71.856854)">
</g>
<g
   id="g865"
   transform="translate(211.0957,71.856854)">
</g>
<g
   id="g867"
   transform="translate(211.0957,71.856854)">
</g>
<g
   id="g869"
   transform="translate(211.0957,71.856854)">
</g>
<g
   id="g871"
   transform="translate(211.0957,71.856854)">
</g>
<g
   id="g873"
   transform="translate(211.0957,71.856854)">
</g>
<g
   id="g875"
   transform="translate(211.0957,71.856854)">
</g>
<g
   id="g1001"><path
     id="path815"
     d="m 720.4397,532.74785 -116.368,-109.523 c -1.566,-1.474 -3.635,-2.294 -5.785,-2.294 h -50.09 c -4.529,0 -8.252,3.576 -8.433,8.102 -0.546,13.648 -2.329,27.494 -5.301,41.151 -0.882,4.057 1.318,8.154 5.186,9.659 l 171.945,66.916 c 1,0.389 2.036,0.576 3.058,0.576 2.828,0 5.555,-1.426 7.139,-3.935 2.158,-3.417 1.591,-7.883 -1.351,-10.652 z"
     style="fill:#f94851"
     inkscape:connector-curvature="0" /><path
     id="path817"
     d="m 566.8147,420.93185 125.517,118.33 19.263,7.496 c 1,0.389 2.036,0.576 3.058,0.576 2.828,0 5.555,-1.426 7.139,-3.935 2.157,-3.416 1.59,-7.882 -1.351,-10.651 l -116.367,-109.522 c -1.566,-1.474 -3.635,-2.294 -5.785,-2.294 z"
     style="fill:#cc333e"
     inkscape:connector-curvature="0" /><path
     id="path819"
     d="m 288.3147,186.34585 c -8.914,-6.367 -27.343,-12.519 -50.618,17.821 -2.135,2.783 -2.307,6.592 -0.46,9.575 0.16,0.258 0.332,0.505 0.515,0.74 5.662,8.207 15.12,14.008 28.12,17.25 9.261,2.309 17.104,2.431 17.434,2.435 0.034,0 0.07,0 0.104,0 2.219,0 4.35,-0.874 5.931,-2.435 1.606,-1.585 2.508,-3.748 2.508,-6.004 v -32.514 c 0,-2.726 -1.316,-5.285 -3.534,-6.868 z"
     style="fill:#ff9f34"
     inkscape:connector-curvature="0" /><path
     id="path821"
     d="m 290.5517,145.48185 c 4.63,0.137 8.525,-3.569 8.642,-8.228 0.116,-4.66 -3.568,-8.531 -8.228,-8.647 -2.236,-0.055 -55.032,-1.003 -73.612,30.194 -10.72,17.999 -7.655,41.93 9.111,71.128 1.507,2.624 4.301,4.237 7.318,4.237 0.063,0 0.124,0 0.187,-0.002 3.087,-0.068 5.891,-1.816 7.311,-4.56 3.712,-7.177 17.034,-28.322 29.145,-31.242 2.932,-0.707 5.425,-0.178 8.079,1.717 3.794,2.71 9.066,1.83 11.772,-1.962 2.71,-3.793 1.831,-9.064 -1.961,-11.772 -1.207,-0.862 -2.446,-1.615 -3.711,-2.263 l 5.049,-38.607 c 0.541,0 0.854,0.006 0.898,0.007 z"
     style="fill:#ffd039"
     inkscape:connector-curvature="0" /><path
     id="path823"
     d="m 450.9307,471.48485 h -27.128 l 17.592,-42.221 c 1.794,-4.303 -0.242,-9.244 -4.544,-11.037 -4.3,-1.791 -9.243,0.241 -11.037,4.544 l -20.297,48.713 h -43.146 c -4.662,0 -8.439,3.779 -8.439,8.439 0,4.661 3.777,8.439 8.439,8.439 h 48.725 c 0.015,0 0.03,0.002 0.045,0.002 0.01,0 0.02,-0.002 0.03,-0.002 h 39.761 c 4.662,0 8.439,-3.779 8.439,-8.439 10e-4,-4.66 -3.778,-8.438 -8.44,-8.438 z"
     style="fill:#ff9f34"
     inkscape:connector-curvature="0" /><path
     id="path825"
     d="m 575.8857,394.53485 -26.822,-27.292 c -2.434,-2.477 -6.132,-3.455 -9.357,-2.168 -3.99,1.592 -6.094,5.839 -5.082,9.893 4.172,16.712 5.904,34.865 5.148,53.96 -0.043,1.083 0.077,2.179 0.441,3.199 1.264,3.54 4.512,5.684 7.988,5.684 h 24.67 27.686 19.01 l -15.496,-14.585 z"
     style="fill:#0088fa"
     inkscape:connector-curvature="0" /><path
     id="path827"
     d="m 584.7487,437.81085 h 34.819 l -15.496,-14.585 -28.187,-28.691 -26.822,-27.292 c -2.434,-2.477 -6.132,-3.455 -9.357,-2.168 -3.99,1.592 -6.094,5.839 -5.082,9.893 1.466,5.874 2.614,11.935 3.475,18.143 2.797,2.399 3.352,4.485 6.817,7.055 z"
     style="fill:#006fec"
     inkscape:connector-curvature="0" /><path
     id="path829"
     d="m 539.8777,339.49485 c -19.794,-42.022 -56.214,-72.874 -108.245,-91.742 l -19.994,-20.345 v -35.559 c 0,-46.025 -37.444,-83.47 -83.47,-83.47 -29.334,0 -53.2,23.866 -53.2,53.2 v 127.219 c 0,82.167 66.846,149.013 149.013,149.013 h 14.163 c 25.613,23.026 57.236,46.008 94.923,63.859 1.142,0.541 2.377,0.812 3.613,0.812 1.088,0 2.176,-0.21 3.205,-0.632 2.195,-0.901 3.911,-2.686 4.724,-4.917 1.238,-3.392 29.896,-83.93 -4.732,-157.438 z"
     style="fill:#f94851"
     inkscape:connector-curvature="0" /><path
     id="path831"
     d="m 539.8777,339.49485 c -19.794,-42.022 -56.214,-72.874 -108.245,-91.742 l -19.994,-20.345 v -35.559 c 0,-46.025 -37.444,-83.47 -83.47,-83.47 -5.221,0 -10.264,0.769 -15.035,2.177 36.963,8.578 64.601,41.757 64.601,81.292 v 35.559 l 19.994,20.345 c 52.031,18.867 88.45,49.721 108.245,91.742 29.763,63.182 12.772,131.558 6.626,151.675 6.612,3.656 13.435,7.168 20.469,10.5 1.142,0.541 2.377,0.812 3.613,0.812 1.088,0 2.176,-0.21 3.205,-0.632 2.195,-0.901 3.911,-2.686 4.724,-4.917 1.237,-3.391 29.895,-83.929 -4.733,-157.437 z"
     style="fill:#cc333e"
     inkscape:connector-curvature="0" /><path
     id="path833"
     d="m 549.3967,364.84485 c -0.242,-0.811 -0.483,-1.623 -0.736,-2.435 -1.053,0.183 -2.118,0.374 -3.201,0.577 -71.37,13.385 -176.068,-19.2 -191.429,-24.183 17.363,26.62 45.074,63.46 83.942,99.007 h 0.172 c 25.613,23.026 57.236,46.007 94.923,63.859 1.142,0.541 2.377,0.812 3.613,0.812 1.088,0 2.176,-0.21 3.205,-0.632 2.195,-0.901 3.911,-2.686 4.724,-4.917 1.096,-3.004 23.696,-66.531 4.787,-132.088 z"
     style="fill:#333333;fill-opacity:1"
     inkscape:connector-curvature="0" /><path
     id="path835"
     d="m 556.6917,410.42185 c -95.426,17.101 -156.078,-19.878 -177.329,-36.166 15.54,19.949 35.016,41.99 58.592,63.555 h 0.19 c 25.613,23.026 57.236,46.008 94.923,63.859 1.142,0.541 2.377,0.812 3.613,0.812 1.088,0 2.176,-0.21 3.205,-0.632 2.195,-0.901 3.911,-2.686 4.724,-4.917 0.836,-2.291 14.175,-39.774 12.082,-86.511 z"
     style="fill:#333333;fill-opacity:1"
     inkscape:connector-curvature="0" /><path
     id="path837"
     d="m 274.9877,290.22685 c 3.468,-0.183 7.231,-0.658 8.443,-0.658 0.573,0 1.149,-0.059 1.722,-0.178 50.433,-10.511 85.657,-47.12 85.657,-89.027 0,-17.969 -6.426,-35.364 -18.585,-50.305 -11.522,-14.158 -27.649,-25.479 -46.655,-32.75 -2.578,-1.095 -5.525,-0.823 -7.871,0.698 -0.318,0.223 -0.636,0.446 -0.95,0.675 -0.34,0.25 -0.674,0.506 -1.007,0.763 -0.435,0.336 -0.872,0.671 -1.296,1.019 -0.277,0.227 -0.542,0.465 -0.815,0.698 -0.782,0.67 -1.545,1.362 -2.288,2.075 -0.3,0.289 -0.607,0.575 -0.9,0.87 -0.348,0.35 -0.682,0.711 -1.021,1.07 -0.339,0.361 -0.676,0.725 -1.005,1.095 -0.289,0.325 -0.573,0.654 -0.854,0.986 -0.398,0.471 -0.788,0.951 -1.169,1.436 -0.196,0.249 -0.396,0.495 -0.587,0.747 -1.849,2.44 -3.487,5.024 -4.888,7.734 -0.003,0.008 -0.008,0.016 -0.011,0.023 -2.378,4.603 -4.08,9.551 -5.038,14.686 -0.024,0.126 -0.045,0.253 -0.068,0.379 -0.151,0.842 -0.277,1.688 -0.387,2.539 -0.028,0.217 -0.059,0.434 -0.083,0.653 -0.091,0.785 -0.16,1.575 -0.216,2.368 -0.017,0.242 -0.042,0.482 -0.055,0.724 -0.057,1.007 -0.092,2.018 -0.092,3.031 v 119.528 7.691 c 10e-4,0.479 0.015,0.954 0.019,1.43 z"
     style="fill:#0088fa;fill-opacity:1"
     inkscape:connector-curvature="0" /><path
     id="path839"
     d="m 352.2257,150.06085 c -11.522,-14.158 -27.649,-25.479 -46.654,-32.75 -2.578,-1.095 -5.525,-0.823 -7.871,0.698 -0.318,0.223 -0.636,0.446 -0.95,0.675 -0.34,0.25 -0.674,0.506 -1.007,0.763 -0.435,0.336 -0.872,0.671 -1.296,1.019 -0.277,0.227 -0.542,0.465 -0.815,0.698 -0.782,0.67 -1.545,1.362 -2.288,2.075 -0.3,0.289 -0.607,0.575 -0.9,0.87 -0.131,0.132 -0.257,0.269 -0.385,0.404 12.302,6.776 22.893,15.432 31.125,25.547 12.158,14.94 18.585,32.336 18.585,50.305 0,35.845 -25.783,67.798 -64.799,82.874 v 5.559 c 0,0.477 0.014,0.952 0.018,1.429 3.468,-0.183 7.231,-0.658 8.443,-0.658 0.573,0 1.149,-0.059 1.722,-0.178 50.433,-10.511 85.657,-47.12 85.657,-89.027 0,-17.968 -6.426,-35.363 -18.585,-50.303 z"
     style="fill:#006fec;fill-opacity:1"
     inkscape:connector-curvature="0" /><path
     id="path841"
     d="m 324.1887,184.39085 c -5.375,0 -9.749,-4.366 -9.749,-9.732 0,-5.368 4.374,-9.732 9.749,-9.732 5.375,0 9.749,4.366 9.749,9.732 10e-4,5.366 -4.372,9.732 -9.749,9.732 z"
     style="fill:#2b2b2b"
     inkscape:connector-curvature="0" /><path
     id="path843"
     d="m 544.7187,496.62985 c 0.021,-0.059 0.043,-0.12 0.068,-0.192 0.018,-0.049 0.038,-0.109 0.059,-0.165 0.025,-0.071 0.051,-0.144 0.079,-0.225 0.025,-0.072 0.052,-0.151 0.079,-0.23 0.028,-0.081 0.057,-0.167 0.088,-0.255 0.033,-0.097 0.068,-0.199 0.104,-0.305 0.027,-0.079 0.055,-0.164 0.083,-0.249 0.043,-0.127 0.086,-0.257 0.132,-0.395 0.026,-0.078 0.054,-0.162 0.081,-0.244 0.052,-0.158 0.104,-0.316 0.16,-0.487 0.018,-0.056 0.038,-0.119 0.057,-0.177 0.3,-0.927 0.648,-2.036 1.034,-3.32 0.009,-0.03 0.018,-0.059 0.027,-0.089 0.091,-0.305 0.185,-0.621 0.28,-0.944 0.016,-0.055 0.033,-0.109 0.048,-0.165 0.092,-0.315 0.187,-0.641 0.284,-0.974 0.02,-0.071 0.041,-0.142 0.061,-0.214 0.098,-0.343 0.198,-0.695 0.299,-1.057 0.013,-0.047 0.027,-0.096 0.04,-0.144 5.855,-20.895 16.369,-70.803 1.619,-121.949 -10e-4,-0.003 -10e-4,-0.006 -0.002,-0.008 -0.241,-0.811 -0.483,-1.622 -0.736,-2.433 -1.053,0.183 -2.118,0.374 -3.201,0.577 -9.388,1.761 -19.357,2.72 -29.619,3.057 15.373,54.738 2.05,107.81 -3.241,125.126 1.951,1.079 3.927,2.141 5.915,3.195 0.632,0.334 1.269,0.665 1.905,0.997 1.481,0.773 2.971,1.538 4.472,2.297 0.631,0.318 1.26,0.638 1.895,0.954 2.077,1.033 4.166,2.057 6.281,3.058 1.142,0.541 2.377,0.812 3.613,0.812 1.088,0 2.176,-0.21 3.205,-0.632 2.195,-0.901 3.911,-2.686 4.724,-4.917 0.018,-0.048 0.043,-0.117 0.072,-0.198 0.008,-0.029 0.023,-0.07 0.035,-0.105 z"
     style="fill:#000000"
     inkscape:connector-curvature="0" /><path
     id="path845"
     d="m 544.7487,496.54685 c 0.035,-0.098 0.075,-0.215 0.12,-0.342 0.018,-0.052 0.035,-0.101 0.055,-0.159 0.135,-0.389 0.306,-0.891 0.506,-1.499 0.018,-0.053 0.036,-0.108 0.054,-0.163 0.095,-0.288 0.196,-0.598 0.303,-0.929 0.011,-0.036 0.022,-0.07 0.034,-0.106 0.245,-0.764 0.52,-1.643 0.817,-2.626 0.016,-0.051 0.03,-0.102 0.046,-0.153 0.457,-1.515 0.967,-3.275 1.509,-5.264 0.007,-0.025 0.013,-0.051 0.02,-0.075 0.551,-2.027 1.135,-4.287 1.729,-6.762 0.002,-0.008 0.005,-0.016 0.006,-0.024 2.79,-11.628 5.8,-27.964 6.698,-46.842 10e-4,-0.034 0.003,-0.069 0.005,-0.102 0.188,-3.994 0.281,-8.101 0.259,-12.3 0,-0.083 -0.001,-0.165 -0.001,-0.249 -0.018,-2.804 -0.088,-5.649 -0.216,-8.531 -11.787,2.112 -23.043,3.397 -33.76,4 0.938,35.253 -6.645,64.682 -10.331,76.749 1.951,1.079 3.927,2.141 5.915,3.195 0.632,0.334 1.269,0.665 1.905,0.997 1.481,0.773 2.971,1.538 4.472,2.297 0.631,0.318 1.26,0.638 1.895,0.954 2.077,1.033 4.166,2.057 6.281,3.058 1.142,0.541 2.377,0.812 3.613,0.812 1.088,0 2.176,-0.21 3.205,-0.632 2.195,-0.901 3.911,-2.686 4.724,-4.917 0.022,-0.061 0.059,-0.161 0.098,-0.272 0.01,-0.034 0.025,-0.077 0.039,-0.115 z"
     style="fill:#000000"
     inkscape:connector-curvature="0" /><path
     style="fill:#f94851;fill-opacity:1;fill-rule:evenodd;stroke-width:1"
     d="M 101.6223,1.80288e-7 C 45.507236,1.80288e-7 2.099904e-6,38.379335 2.099904e-6,85.7049 2.099904e-6,133.03156 45.507236,171.41106 101.6223,171.41106 c 9.4384,0 18.5736,-1.09163 27.24587,-3.12355 14.6745,10.92129 34.65879,15.6222 62.07131,11.61923 -10.81444,-8.68906 -20.83456,-17.51316 -26.05136,-27.14003 23.37149,-15.70182 38.3561,-39.90674 38.3561,-67.061731 0,-47.325813 -45.50724,-85.704900256864 -101.62188,-85.704900256864 z"
     class="fil0"
     id="_143569424"
     inkscape:connector-curvature="0" /><polygon
     transform="matrix(-0.41883476,0,0,0.41883476,1000.9192,-187.18689)"
     style="fill:#0088fa;fill-opacity:1;fill-rule:evenodd;stroke-width:4.67417955"
     points="2141.33,832.499 2139.4,832.45 2137.48,832.388 2135.56,832.313 2133.66,832.223 2131.74,832.118 2129.83,832.002 2127.93,831.872 2126.05,831.729 2124.15,831.571 2122.27,831.402 2120.4,831.217 2118.52,831.021 2116.64,830.808 2114.78,830.587 2112.92,830.351 2111.07,830.104 2109.22,829.841 2107.37,829.568 2105.54,829.281 2103.71,828.983 2101.88,828.667 2100.05,828.344 2098.25,828.009 2096.44,827.661 2094.64,827.296 2092.83,826.923 2091.05,826.537 2089.26,826.14 2076.96,823.288 2065.2,831.786 2062.35,833.725 2059.44,835.589 2056.47,837.376 2053.42,839.09 2050.32,840.725 2047.13,842.285 2043.87,843.768 2040.53,845.178 2037.12,846.507 2033.61,847.758 2030.03,848.929 2026.35,850.02 2022.59,851.027 2018.74,851.951 2014.78,852.789 2010.73,853.544 2006.6,854.205 2002.35,854.777 1997.99,855.256 1993.54,855.643 1992.43,855.712 1993.17,854.928 1995.26,852.652 1997.32,850.346 1999.33,848.01 2001.31,845.654 2003.24,843.268 2005.13,840.85 2006.97,838.398 2008.76,835.911 2010.5,833.39 2012.18,830.833 2013.81,828.226 2015.37,825.587 2027.17,804.433 2004.6,788.837 2000.05,785.513 1995.62,782.094 1991.31,778.577 1987.12,774.97 1983.05,771.274 1979.12,767.489 1975.31,763.619 1971.63,759.67 1968.09,755.639 1964.68,751.533 1961.42,747.354 1958.29,743.102 1955.31,738.783 1952.47,734.396 1949.77,729.943 1947.23,725.434 1944.83,720.864 1942.59,716.235 1940.5,711.549 1938.57,706.812 1936.8,702.022 1935.18,697.181 1933.73,692.292 1932.44,687.357 1931.31,682.372 1930.35,677.345 1929.56,672.272 1928.94,667.157 1928.49,661.992 1928.22,656.793 1928.14,651.7 1928.41,642.44 1929.23,633.457 1930.56,624.606 1932.41,615.889 1934.76,607.314 1937.59,598.883 1940.91,590.61 1944.7,582.499 1948.96,574.568 1953.67,566.817 1958.82,559.262 1964.4,551.922 1970.4,544.805 1976.82,537.919 1983.63,531.288 1990.82,524.924 1998.39,518.841 2006.32,513.048 2014.59,507.564 2023.19,502.402 2032.11,497.579 2041.34,493.105 2050.86,488.993 2060.65,485.258 2070.69,481.917 2080.99,478.978 2091.52,476.455 2102.27,474.363 2113.21,472.714 2124.35,471.519 2135.67,470.793 2147.14,470.548 2158.61,470.793 2169.93,471.519 2181.07,472.714 2192.02,474.363 2202.76,476.455 2213.29,478.978 2223.58,481.917 2233.63,485.258 2243.42,488.993 2252.94,493.105 2262.17,497.579 2271.09,502.403 2279.69,507.565 2287.97,513.048 2295.9,518.841 2303.47,524.924 2310.66,531.288 2317.47,537.919 2323.88,544.805 2329.89,551.922 2335.47,559.264 2340.62,566.817 2345.33,574.568 2349.58,582.499 2353.37,590.61 2356.69,598.883 2359.53,607.314 2361.88,615.889 2363.72,624.606 2365.06,633.457 2365.87,642.44 2366.14,651.55 2365.87,660.664 2365.06,669.648 2363.72,678.501 2361.88,687.215 2359.53,695.794 2356.69,704.223 2353.37,712.497 2349.58,720.605 2345.32,728.541 2340.62,736.292 2335.47,743.845 2329.89,751.185 2323.88,758.305 2317.47,765.187 2310.66,771.817 2310.66,771.817 2303.47,778.18 2295.9,784.268 2287.97,790.058 2279.69,795.543 2271.09,800.703 2262.17,805.529 2252.94,810.003 2243.42,814.116 2233.64,817.847 2223.58,821.192 2213.29,824.13 2202.76,826.651 2192.02,828.743 2181.07,830.391 2169.93,831.585 2158.62,832.313 2146.93,832.56 2145.19,832.554 2143.26,832.534 "
     class="fil1"
     id="_143545344" /><polygon
     transform="matrix(-0.41883476,0,0,0.41883476,1000.9192,-187.18689)"
     style="fill:#333333;fill-opacity:1;fill-rule:evenodd;stroke-width:4.67417955"
     points="2074.39,810.57 2058.42,822.116 2055.84,823.87 2053.22,825.553 2050.53,827.166 2047.78,828.717 2044.97,830.194 2042.09,831.605 2039.13,832.952 2036.09,834.233 2032.99,835.441 2029.79,836.583 2026.52,837.653 2023.15,838.653 2020.75,839.296 2022.12,837.207 2023.9,834.362 2025.61,831.474 2042.71,800.817 2011.44,779.21 2007.14,776.069 2002.96,772.841 1998.89,769.525 1994.95,766.126 1991.12,762.647 1987.42,759.088 1983.84,755.454 1980.39,751.748 1977.07,747.969 1973.88,744.125 1970.83,740.219 1967.91,736.246 1965.12,732.215 1962.48,728.128 1959.97,723.983 1957.6,719.793 1955.38,715.55 1953.3,711.256 1951.37,706.913 1949.58,702.528 1947.94,698.1 1946.44,693.626 1945.1,689.114 1943.91,684.56 1942.87,679.962 1941.99,675.328 1941.26,670.655 1940.69,665.94 1940.28,661.179 1940.03,656.384 1939.95,651.776 1940.21,643.149 1940.96,634.869 1942.18,626.711 1943.89,618.675 1946.06,610.761 1948.68,602.969 1951.75,595.313 1955.27,587.794 1959.22,580.427 1963.6,573.214 1968.4,566.166 1973.62,559.306 1979.24,552.642 1985.26,546.18 1991.66,539.946 1998.43,533.953 2005.57,528.216 2013.06,522.743 2020.89,517.554 2029.04,512.664 2037.5,508.092 2046.26,503.844 2055.3,499.936 2064.62,496.384 2074.18,493.204 2083.99,490.403 2094.03,487.999 2104.27,486.003 2114.72,484.429 2125.36,483.288 2136.17,482.594 2147.14,482.36 2158.11,482.594 2168.92,483.288 2179.56,484.429 2190.01,486.003 2200.25,487.999 2210.29,490.403 2220.1,493.204 2229.67,496.384 2238.97,499.936 2248.02,503.844 2256.78,508.092 2265.24,512.666 2273.39,517.556 2281.22,522.744 2288.71,528.216 2295.85,533.953 2302.62,539.946 2309.02,546.18 2315.04,552.642 2320.67,559.307 2325.88,566.167 2330.69,573.213 2335.07,580.427 2339.02,587.794 2342.53,595.313 2345.61,602.969 2348.23,610.761 2350.4,618.675 2352.1,626.711 2353.33,634.869 2354.08,643.149 2354.33,651.55 2354.08,659.955 2353.33,668.237 2352.1,676.395 2350.4,684.429 2348.23,692.346 2345.61,700.136 2342.53,707.793 2339.02,715.31 2335.07,722.681 2330.69,729.896 2325.88,736.94 2320.67,743.799 2315.04,750.468 2309.03,756.927 2302.62,763.159 2295.85,769.151 2288.71,774.894 2281.22,780.363 2273.39,785.552 2265.24,790.441 2256.78,795.017 2248.02,799.265 2238.98,803.173 2229.67,806.722 2220.1,809.905 2210.29,812.704 2200.26,815.108 2190.01,817.102 2179.56,818.676 2168.92,819.816 2158.11,820.512 2146.83,820.75 2145.28,820.744 2143.43,820.725 2141.59,820.692 2139.74,820.645 2137.9,820.586 2136.08,820.514 2134.26,820.429 2132.42,820.328 2130.59,820.217 2128.78,820.093 2126.98,819.958 2125.17,819.805 2125.17,819.805 2123.38,819.645 2121.59,819.468 2119.8,819.281 2118,819.077 2116.21,818.865 2114.44,818.641 2112.68,818.406 2110.91,818.154 2109.15,817.893 2107.4,817.621 2105.66,817.336 2103.91,817.034 2102.15,816.723 2100.45,816.407 2098.73,816.076 2097,815.725 2095.28,815.368 2093.58,815.001 2091.88,814.624 "
     class="fil2"
     id="_143472440" /><path
     inkscape:connector-curvature="0"
     style="fill:#ffd039;fill-opacity:1;stroke:none;stroke-width:0.99999994"
     d="m 53.445274,66.960075 3.483821,0.258062 c 3.612844,-4.085973 5.032188,-16.171818 26.32221,-13.806259 -0.774184,51.784212 -23.483536,57.246512 -22.064206,67.870012 0.516123,6.02141 5.29025,9.72029 10.451462,9.93534 C 87.939416,130.6581 87.20824,108.67991 92.283437,53.282841 H 113.3154 c -1.11826,19.526614 -4.17198,39.053215 -4.51607,58.192729 0.25806,12.73101 7.9999,19.52661 18.1933,19.61264 16.77396,0.55913 22.06421,-19.0105 22.06421,-27.35447 h -3.61285 c -0.34409,6.88162 -3.65586,11.82779 -10.70953,12.12886 -19.22553,0.25806 -8.64503,-33.80596 -8.51601,-62.321698 l 22.83839,0.129024 -0.12902,-14.580443 C 54.00264,38.629657 66.05135,36.768696 53.445274,66.960062 Z"
     id="path970" /></g></svg>